<?xml version="1.0" encoding="utf-8"?><!DOCTYPE svg PUBLIC "-//W3C//DTD SVG 1.1//EN" "http://www.w3.org/Graphics/SVG/1.1/DTD/svg11.dtd"><svg version="1.1" xmlns:rdf="http://www.w3.org/1999/02/22-rdf-syntax-ns#" xmlns:cc="http://creativecommons.org/ns#" xmlns:dc="http://purl.org/dc/elements/1.1/" xmlns:svg="http://www.w3.org/2000/svg" xmlns:inkscape="http://www.inkscape.org/namespaces/inkscape" xmlns:sodipodi="http://sodipodi.sourceforge.net/DTD/sodipodi-0.dtd" xmlns="http://www.w3.org/2000/svg" xmlns:xlink="http://www.w3.org/1999/xlink" x="0px" y="0px" viewBox="2.514 -0.397 94.973 100" enable-background="new 2.514 -0.397 94.973 100" xml:space="preserve"><path d="M55.234,35.647L77.69,97.347l-6.199,2.257l-16.543-45.45v45.434h-6.598V54.072l-16.524,45.4l-6.199-2.256
	l21.31-58.55L55.234,35.647L55.234,35.647z"></path><path d="M5.602,44.897l18.052-6.57l0.752,2.066l59.93-21.813l0.752,2.067l12.398-4.513L91.47-0.397L79.07,4.116
	l0.752,2.066L19.893,27.996l0.752,2.066l-10.88,3.96l-2.632-7.233l-4.62,1.681l2.633,7.232l-2.553,0.93l0.115,0.316L5.602,44.897
	L5.602,44.897z"></path></svg>